<svg xmlns="http://www.w3.org/2000/svg" width="32" height="22" fill="none"><path fill="#F90" d="M18.378 4.464c-.373-.32-.953-.481-1.74-.481-.39 0-.779.035-1.168.104-.39.07-.718.163-.983.279a.474.474 0 0 0-.199.13c-.033.045-.05.125-.05.24v.334c0 .148.054.222.162.222a.338.338 0 0 0 .106-.018l.093-.031a6.423 6.423 0 0 1 1.827-.285c.497 0 .846.091 1.045.273.199.181.298.494.298.94v.815a6.731 6.731 0 0 0-1.567-.21c-.729 0-1.309.18-1.74.538-.43.358-.646.839-.646 1.44 0 .561.174 1.008.522 1.342.348.334.82.5 1.417.5.356 0 .714-.07 1.075-.21.361-.14.69-.338.988-.593l.063.408c.025.156.116.234.274.234h.534c.165 0 .249-.082.249-.247V5.96c0-.676-.187-1.174-.56-1.496ZM17.77 9.04c-.273.206-.56.362-.858.47-.298.107-.584.16-.857.16-.323 0-.572-.084-.746-.253-.174-.169-.261-.41-.261-.723 0-.717.468-1.076 1.404-1.076.216 0 .437.015.665.044.228.029.446.068.653.117v1.26Zm-4.996-3.176c-.12-.4-.292-.74-.516-1.02a2.223 2.223 0 0 0-.82-.643 2.559 2.559 0 0 0-1.082-.222c-.373 0-.738.07-1.094.21-.356.14-.692.346-1.007.618l-.062-.396c-.025-.165-.12-.247-.286-.247h-.547c-.166 0-.249.082-.249.247v8.322c0 .165.083.247.249.247h.733c.166 0 .249-.083.249-.248V9.84c.538.486 1.18.73 1.926.73.406 0 .775-.08 1.106-.241.332-.16.613-.386.845-.674a3.13 3.13 0 0 0 .54-1.051c.13-.412.194-.874.194-1.385a4.668 4.668 0 0 0-.18-1.354ZM9.982 9.58c-.564 0-1.111-.197-1.64-.593v-3.45c.52-.379 1.076-.568 1.665-.568 1.127 0 1.69.77 1.69 2.312 0 1.533-.571 2.3-1.715 2.3Zm13 1.953 2.736-6.924a.948.948 0 0 0 .086-.297c0-.099-.058-.148-.174-.148h-.696c-.133 0-.223.02-.274.062-.05.041-.099.132-.149.272l-1.678 4.797-1.74-4.797c-.05-.14-.1-.23-.15-.272-.05-.041-.14-.062-.274-.062h-.745c-.116 0-.175.05-.175.148 0 .058.03.156.087.297l2.4 5.885-.237.631c-.14.396-.298.668-.472.816-.174.149-.419.223-.733.223-.141 0-.253-.01-.336-.025a1.098 1.098 0 0 0-.186-.025c-.124 0-.187.078-.187.235v.321c0 .116.02.2.063.253a.358.358 0 0 0 .199.118c.206.057.443.087.708.087.473 0 .856-.124 1.15-.372.295-.246.554-.655.778-1.223Zm2.712 4.4c-2.628 1.929-6.437 2.954-9.718 2.954-4.597 0-8.737-1.69-11.87-4.504-.246-.22-.027-.523.27-.351 3.38 1.956 7.559 3.134 11.876 3.134 2.913 0 6.114-.6 9.06-1.844.444-.188.816.29.382.61Zm1.093-1.242c.336.428-.374 2.192-.691 2.98-.096.238.11.335.327.154 1.41-1.173 1.774-3.63 1.485-3.986-.286-.352-2.75-.655-4.255.396-.231.161-.191.385.065.354.847-.1 2.733-.326 3.069.102Z"/></svg>