<svg xmlns="http://www.w3.org/2000/svg" width="32" height="22" fill="none"><g clip-path="url(#a)"><path fill="#2E77BC" fill-rule="evenodd" d="M19.671 12.756c.209.126.344.302.344.622l.002.001c0 .45-.3.675-.48.747l-.02.008a.75.75 0 0 1 .33.234c.091.14.106.266.108.516v.555h-.66V15.035c.002-.166.004-.38-.104-.496-.088-.101-.238-.125-.478-.125h-.72v1.027h-.675v-2.82h1.543c.346 0 .6.015.81.135Zm-.554 1.027.028.002.002.001c.089-.055.134-.15.134-.27a.266.266 0 0 0-.15-.255c-.09-.05-.21-.05-.33-.05h-.824v.63h.81c.135 0 .24-.005.33-.058ZM23 14.837h1.297c.127 0 .217-.017.277-.07.045-.03.08-.103.08-.18 0-.074-.036-.15-.082-.18-.045-.045-.121-.06-.225-.06l-.117-.002c-.606-.011-1.29-.023-1.29-.868 0-.403.254-.84.958-.84h1.35v.602h-1.23a.495.495 0 0 0-.272.06c-.073.044-.09.12-.09.21 0 .105.06.18.15.21.075.03.151.03.255.03l.376.015c.338.014.577.074.73.207.121.134.187.302.187.582 0 .606-.374.884-1.05.884H23v-.6Zm2.158-.88a.193.193 0 0 1 .009.014.05.05 0 0 0 .016.01l.007.003.008.007a.027.027 0 0 0-.008-.007l-.032-.026Zm0 0-.002-.002v.001l.002.002Zm2.67-1.873h.004v-.002h.061v.555h-.064v-.001h-.001v-.552Zm0 .552h-1.282c-.69 0-.96.437-.96.84 0 .845.687.857 1.293.868l.117.002c.104 0 .18.015.224.06.046.03.076.106.076.18 0 .07-.034.138-.09.18-.045.056-.136.07-.27.07h-1.288v.605h1.287c.42 0 .734-.118.9-.36h.03c.09-.134.135-.3.135-.523 0-.24-.045-.39-.135-.526v-.007a.448.448 0 0 1-.035-.034c-.013-.012-.024-.024-.04-.036-.15-.153-.39-.215-.764-.225l-.36-.012a.881.881 0 0 1-.27-.03.212.212 0 0 1-.15-.21c0-.09.03-.16.09-.204.076-.045.15-.05.27-.05h1.223v-.587h-.001v-.001Zm-5.231-.011v.583l-1.569.001v.51h1.532v.584h-1.533v.57h1.57v.585h-2.235v-2.833h2.235Zm-4.402-4.838h-.685l.001 2.813h.684V7.787Zm-1.076.762.007-.006.001-.001c0 .45-.3.68-.472.75a.79.79 0 0 1 .33.237c.094.141.11.266.11.516v.553h-.677V10.194c.002-.165.003-.375-.107-.498-.097-.09-.247-.12-.487-.12h-.72v1.034h-.674V7.79h1.539c.34 0 .593.01.81.135.21.124.34.31.34.624Zm-.863.39h.015v-.001c.087-.046.134-.144.134-.266 0-.122-.06-.21-.15-.25-.09-.046-.21-.05-.33-.05H15.1v.623h.826c.135 0 .24-.002.33-.056Zm4.296-.566h-.633c-.244 0-.383.03-.516.165-.114.12-.194.345-.194.63 0 .302.061.512.186.662.106.104.291.134.468.134h.3l.943-2.22h1.004l1.133 2.656V7.789h1.02l1.18 1.96V7.786h.684v2.813l-.002-.002h-.95l-1.272-2.11v2.11h-1.36l-.262-.627h-1.39l-.255.627h-.78c-.325 0-.738-.072-.97-.31-.237-.241-.36-.562-.36-1.074 0-.42.076-.81.362-1.11.216-.225.556-.33 1.02-.33h.644v.6Zm1.5 1.01-.464-1.118-.466 1.12h.93v-.002ZM6.634 10.598 6.38 9.97l-1.39.001-.26.626h-.72l1.198-2.81h.997l1.138 2.663V7.787h1.092l.876 1.905.807-1.904h1.116v2.81h-.69l-.015-2.202-.973 2.202h-.584L8 8.393v2.205H6.634Zm-.482-1.215-.46-1.118h-.001l-.457 1.12h.915l.003-.002Zm7.562 3.237h2.142l-.001.001c.53 0 1.128.15 1.128.93l.006.003c0 .781-.57.945-1.17.945h-.838v.94h-1.302l-.824-.93-.855.932H9.346v-2.82h2.693l.825.922.85-.923Zm-2.044 2.233-.014-.002H10.02v-.557h1.47v-.574h-1.47v-.51h1.68l.733.82-.763.823Zm1.612-.817 1.03 1.147v-2.255l-1.03 1.108Zm1.698-.111h.885v-.001c.27 0 .42-.129.42-.372 0-.246-.18-.344-.42-.344h-.885v.717Zm-1.013-6.138v.586H12.4v.507h1.527v.576H12.4v.564h1.567v.58H11.73V7.787h2.237Z" clip-rule="evenodd"/></g><defs><clipPath id="a"><path fill="#fff" d="M0 0h32v22H0z"/></clipPath></defs></svg>