<svg xmlns="http://www.w3.org/2000/svg" width="18" height="19" fill="none"><path fill="#FFC107" d="M17.825 7.551H17.1v-.037H9v3.6h5.086A5.398 5.398 0 0 1 3.6 9.314a5.4 5.4 0 0 1 5.4-5.4c1.377 0 2.629.519 3.582 1.367l2.546-2.545A8.959 8.959 0 0 0 9 .314a9 9 0 1 0 8.825 7.237Z"/><path fill="#FF3D00" d="m1.038 5.125 2.957 2.168A5.398 5.398 0 0 1 9 3.913c1.376 0 2.629.52 3.582 1.368l2.546-2.545A8.959 8.959 0 0 0 9 .314a8.995 8.995 0 0 0-7.962 4.81Z"/><path fill="#4CAF50" d="M9 18.314c2.324 0 4.437-.89 6.034-2.337l-2.786-2.357A5.36 5.36 0 0 1 9 14.714a5.398 5.398 0 0 1-5.078-3.576L.987 13.4A8.993 8.993 0 0 0 9 18.314Z"/><path fill="#1976D2" d="M17.825 7.551H17.1v-.037H9v3.6h5.086a5.418 5.418 0 0 1-1.839 2.507l.002-.001 2.785 2.357c-.197.18 2.966-2.163 2.966-6.663 0-.604-.062-1.193-.175-1.763Z"/></svg>