<svg xmlns="http://www.w3.org/2000/svg" width="32" height="22" fill="none"><path fill="#FF5F00" d="M19.298 5.234h-6.614v11.531h6.614V5.235Z"/><path fill="#EB001B" d="M13.104 11a7.14 7.14 0 0 1 .759-3.206 7.367 7.367 0 0 1 2.128-2.56 7.688 7.688 0 0 0-3.864-1.525 7.762 7.762 0 0 0-4.11.695A7.485 7.485 0 0 0 4.913 7.11 7.173 7.173 0 0 0 3.761 11c0 1.377.4 2.725 1.152 3.892a7.485 7.485 0 0 0 3.104 2.705c1.275.601 2.7.842 4.11.695a7.688 7.688 0 0 0 3.864-1.526 7.366 7.366 0 0 1-2.128-2.56A7.14 7.14 0 0 1 13.104 11Z"/><path fill="#F79E1B" d="M28.22 11a7.173 7.173 0 0 1-1.15 3.89 7.485 7.485 0 0 1-3.104 2.706 7.762 7.762 0 0 1-4.11.695 7.687 7.687 0 0 1-3.865-1.526 7.38 7.38 0 0 0 2.127-2.56c.5-.999.76-2.095.76-3.205 0-1.11-.26-2.206-.76-3.205a7.381 7.381 0 0 0-2.127-2.56 7.687 7.687 0 0 1 3.865-1.526 7.762 7.762 0 0 1 4.11.695 7.484 7.484 0 0 1 3.103 2.705A7.173 7.173 0 0 1 28.221 11ZM27.5 15.544v-.236h.098v-.048h-.25v.048h.098v.236h.053Zm.485 0v-.285h-.077l-.088.196-.088-.196h-.077v.285h.054v-.215l.083.186h.056l.083-.186v.215h.054Z"/></svg>