<svg xmlns="http://www.w3.org/2000/svg" width="18" height="18" fill="none"><path fill="#D0D9DF" d="M9 0C4.013 0 0 4.013 0 9c0 4.988 4.013 9 9 9 4.988 0 9-4.012 9-9 0-4.987-4.012-9-9-9ZM1.125 9A7.874 7.874 0 0 1 9 1.125c1.95 0 3.75.712 5.137 1.913l-3.712 3.675L9.187 4.35c-.074-.15-.112-.262-.262-.262H8.4c-.338 0-.3.074-.263.262l.75 3.338v.562l-.524.037c-.638 0-1.388.113-1.988.3l-.862-1.312c-.15-.225-.113-.263-.263-.263-.338 0-.3.038-.263.263L5.25 8.85c0 .037 0 .075.037.113-.037.037-.074.037-.074.075 0 .037.037.075.112.112-.075.037-.112.112-.112.225L4.95 10.95c-.038.225-.075.263.263.263.15 0 .112-.038.262-.263l.938-1.387c.3.074.6.15.937.224L3 14.1C1.837 12.713 1.125 10.95 1.125 9ZM9 16.875a7.827 7.827 0 0 1-5.213-1.988L8.813 9.9h.074v.563L8.063 13.8c-.037.188-.074.262.263.262h.525c.15 0 .188-.112.263-.262l2.024-3.675 1.013.075h.15c.563 0 2.1-.45 2.1-1.012 0-.563-1.5-1.05-2.1-1.088h-.15l-1.013.037-.187-.375 3.975-3.937c1.2 1.388 1.95 3.188 1.95 5.175A7.874 7.874 0 0 1 9 16.875Z"/></svg>