<svg xmlns="http://www.w3.org/2000/svg" width="24" height="24" fill="currentColor"><path fill-rule="evenodd" d="M23.822 8.005c.004.434-1.142.792-1.581.788-.032-.001-.064-.003-.108-.012l-.769-.058-1.446 2.816c-.049.117-.077.198-.192.198l-.395.005c-.26 0-.234-.05-.203-.193l.557-2.508-.011-.422-.394-.027c-.478.008-1.066-.11-1.54-.229l-.664.993c-.108.164-.077.197-.192.198-.261-.001-.216-.024-.204-.193l.181-1.18c-.005-.051.01-.107.043-.137-.006-.02-.03-.033-.024-.045-.006-.02.02-.037.053-.067-.05-.028-.067-.085-.072-.136l-.214-1.175c-.02-.171-.057-.192.191-.198.115 0 .095.036.204.193l.71 1.018c.463-.128 1.04-.224 1.51-.22l.39-.024-.011-.422-.634-2.512c-.033-.147-.07-.199.192-.198l.395-.005c.114 0 .137.076.197.205l1.546 2.81.767-.055c.044.008.082-.003.114 0 .44.002 1.6.357 1.604.792ZM.176 15.746c.01-.434 1.169-.751 1.607-.732.032.002.064.005.108.015l.766.085 1.544-2.764c.052-.115.083-.195.198-.191l.395.008c.261.01.232.058.197.2l-.644 2.488-.004.422.393.04c.477.01 1.061.148 1.53.283l.7-.968c.112-.161.083-.195.197-.191.261.01.215.03.197.2l-.222 1.173c.003.05-.013.106-.047.135.005.019.03.034.022.046.005.019-.021.036-.055.064.049.03.064.088.067.139l.173 1.182c.014.171.05.193-.198.19-.115-.003-.093-.039-.197-.199l-.674-1.042c-.467.111-1.047.188-1.517.166l-.39.01-.004.423.546 2.533c.028.148.062.201-.199.191l-.395-.008c-.114-.004-.134-.081-.19-.212l-1.447-2.863-.768.029c-.044-.01-.083 0-.114-.004-.44-.018-1.586-.413-1.575-.848ZM2 9a1 1 0 1 1 0-2 1 1 0 0 1 0 2Zm2-.75a.25.25 0 0 1 0-.5h1a.25.25 0 0 1 0 .5H4Zm2.5 0a.25.25 0 0 1 0-.5h1a.25.25 0 0 1 0 .5h-1Zm2.5 0a.25.25 0 0 1 0-.5h1a.25.25 0 0 1 0 .5H9Zm2.5 0a.25.25 0 1 1 0-.5h1a.25.25 0 0 1 0 .5h-1Zm2.5 0a.25.25 0 1 1 0-.5h1a.25.25 0 0 1 0 .5h-1Zm8 8.76a1 1 0 1 1 0-2 1 1 0 0 1 0 2Zm-2.745-.75h-1a.25.25 0 1 1 0-.5h1a.25.25 0 1 1 0 .5Zm-2.5 0h-1a.25.25 0 1 1 0-.5h1a.25.25 0 1 1 0 .5Zm-2.5 0h-1a.25.25 0 1 1 0-.5h1a.25.25 0 1 1 0 .5Zm-2.5 0h-1a.25.25 0 1 1 0-.5h1a.25.25 0 1 1 0 .5Zm-2.5 0h-1a.25.25 0 1 1 0-.5h1a.25.25 0 1 1 0 .5Z" clip-rule="evenodd"/></svg>